<svg width="97.589" height="17.178" xmlns="http://www.w3.org/2000/svg">
   <path fill="#e2003d" d="M33.8 7.786c.085-.397.136-.796.136-1.174 0-1.137-.477-2.009-1.772-2.009-1.552 0-2.712 1.27-3.548 3.126.086-.359.119-.721.119-1.041 0-1.156-.528-2.085-1.789-2.085-1.553 0-2.711 1.27-3.547 3.126l.647-2.937h-3.938v.038c.426.34.631.587.631 1.061 0 .228-.051.512-.137.947l-1.654 7.332h3.018l1.059-4.736c.459-2.103 1.449-3.201 2.182-3.201.393 0 .529.265.529.644 0 .189-.034.455-.103.701l-1.483 6.593h3.018l1.059-4.736c.459-2.103 1.465-3.201 2.182-3.201.392 0 .529.265.529.644 0 .189-.035.455-.086.701l-.938 4.168a3.27 3.27 0 0 0-.085.682c0 1.1.664 1.933 1.96 1.933.818 0 1.74-.284 2.559-1.25l-.018-.038c-.342.171-.648.265-.904.265-.408 0-.682-.246-.682-.701 0-.113.017-.244.051-.397zm10.112.72c.29-1.345.597-2.766.972-3.902-1.142.228-2.115.738-2.848 1.743-.357-.985-1.057-1.743-2.421-1.743-2.933 0-5.185 3.145-5.185 6.423 0 1.988.989 3.314 2.592 3.314 1.604 0 2.508-1.154 3.189-2.539a1.672 1.672 0 0 0-.086.456c-.034 1.212.614 2.103 1.961 2.103.803 0 1.723-.302 2.541-1.25v-.038c-1.107.55-1.773.189-1.534-.834zm-5.422 4.509c-.683 0-1.007-.587-1.007-1.686 0-2.255 1.262-6.119 2.763-6.119.579 0 1.006.474 1.006 1.402 0 .396-.067.852-.205 1.421l-.545 2.292c-.341 1.364-1.109 2.69-2.012 2.69m12.464-4.679c.137.152.479.303.887.303 1.074 0 1.995-.909 1.995-2.292 0-1.023-.665-1.743-1.637-1.743-1.484 0-2.456 1.687-3.189 3.506l.733-3.316h-3.939v.038c.428.34.633.587.633 1.061 0 .228-.053.512-.138.947l-1.653 7.332h3.018l.921-4.148c.478-2.18 1.45-3.639 2.37-3.639.495 0 .802.322.802.834-.002.643-.325 1.06-.803 1.117m4.417-6.404c0 .967.647 1.705 1.585 1.705 1.007 0 1.773-.853 1.773-1.914C58.729.739 58.081 0 57.143 0c-.988 0-1.772.852-1.772 1.932m2.676 2.861h-3.939v.038c.427.34.632.587.632 1.061 0 .228-.052.512-.154.947l-1.108 4.907a3.273 3.273 0 0 0-.086.682c0 1.1.666 1.933 1.979 1.933.801 0 1.722-.284 2.54-1.25v-.038c-.357.171-.665.265-.903.265-.427 0-.683-.246-.683-.701 0-.113.017-.244.052-.397zm9.498 3.713c.29-1.345.598-2.766.971-3.902-1.142.228-2.113.738-2.847 1.743-.358-.985-1.058-1.743-2.422-1.743-2.933 0-5.183 3.145-5.183 6.423 0 1.988.988 3.314 2.592 3.314 1.602 0 2.507-1.154 3.188-2.539a1.672 1.672 0 0 0-.086.456c-.033 1.212.614 2.103 1.963 2.103.801 0 1.723-.302 2.541-1.25v-.038c-1.109.55-1.775.189-1.535-.834zm-5.422 4.509c-.683 0-1.006-.587-1.006-1.686 0-2.255 1.262-6.119 2.762-6.119.58 0 1.006.474 1.006 1.402 0 .396-.067.852-.204 1.421l-.546 2.292c-.342 1.364-1.109 2.69-2.012 2.69m10.231-3.581c.459-2.103 1.482-3.201 2.25-3.201.461 0 .614.284.614.701a3.4 3.4 0 0 1-.102.758l-.923 4.054a3.25 3.25 0 0 0-.084.663c0 1.099.664 1.951 1.978 1.951.817 0 1.724-.284 2.541-1.25v-.038c-.358.171-.647.265-.903.265-.427 0-.682-.246-.682-.701 0-.113.016-.244.05-.397L78.1 7.787c.086-.379.137-.777.137-1.118 0-1.174-.512-2.064-1.842-2.064-1.586 0-2.865 1.326-3.666 3.183l.647-2.993h-3.94v.038c.428.34.633.587.633 1.061 0 .228-.051.512-.137.947l-1.654 7.332h3.019zm10.367 0c.461-2.103 1.483-3.201 2.25-3.201.461 0 .614.284.614.701 0 .208-.035.473-.103.758l-.92 4.054a3.262 3.262 0 0 0-.086.663c0 1.099.664 1.951 1.979 1.951.818 0 1.723-.284 2.54-1.25v-.038c-.358.171-.647.265-.904.265-.425 0-.682-.246-.682-.701 0-.113.019-.244.052-.397l1.006-4.452c.086-.379.137-.777.137-1.118 0-1.174-.513-2.064-1.842-2.064-1.586 0-2.865 1.326-3.666 3.183l.648-2.993h-3.939v.038c.426.34.631.587.631 1.061 0 .228-.052.512-.137.947l-1.654 7.332h3.019zm10.027 4.926c1.875 0 3.188-.985 4.007-2.767h-.104c-.75.948-1.482 1.385-2.455 1.385-1.143 0-2.028-.74-2.028-2.445 0-.284.017-.587.067-.89 3.054-.058 5.354-.872 5.354-2.955 0-1.251-1.092-2.104-2.745-2.104-3.223 0-5.678 2.861-5.678 5.988 0 2.349 1.467 3.788 3.582 3.788m2.147-9.435c.375 0 .547.322.547.815 0 1.8-1.194 3.429-3.188 3.675.339-2.178 1.584-4.49 2.641-4.49m-86.126-.9C5.846-.36 0 2.207 0 6.983c0 3.231 2.918 5.535 5.115 7.271 2.282 1.807 2.923 2.192 3.653 2.924.731-.731 1.342-1.156 3.654-2.924 2.227-1.701 5.114-4.077 5.114-7.306.001-4.741-5.845-7.307-8.767-2.923"/>
   <path fill="#fff" d="M11.187 8.827c0 .117.014.233.014.254a2.2 2.2 0 0 0-.124-.207L8.87 5.989h-.946v5.004H9.02V8.128c0-.11-.013-.227-.013-.241.006.022.061.11.124.192l2.207 2.914h.946V5.989h-1.097ZM4.861 5.989H3.345v5.004h1.516c1.33 0 2.604-.857 2.604-2.509.001-1.618-1.178-2.495-2.604-2.495m0 4.078h-.418V6.914h.418c.876 0 1.474.693 1.474 1.57 0 .844-.542 1.583-1.474 1.583m8.193-4.075h1.119v5h-1.119z"/>
</svg>
